<svg xmlns="http://www.w3.org/2000/svg" xmlns:xlink="http://www.w3.org/1999/xlink" version="1.1" viewBox="0 0 44 44" enable-background="new 0 0 44 44" preserveAspectRatio="xMidYMid meet" style="width: 64px; height: 64px; transform-origin: 50% 50%; transform: scaleX(1) scaleY(1) rotate(0deg);">
  <g fill="#000000" style="fill:#000000;stroke:none" stroke="none">
    <g fill="#000000" style="fill:#000000;stroke:none" stroke="none">
      <path d="m3,31c-0.552,0-1-0.447-1-1v-22c0-0.553 0.448-1 1-1h32c0.552,0 1,0.447 1,1 0,0.553 0.448,1 1,1s1-0.447 1-1c0-1.657-1.343-3-3-3h-32c-1.657,0-3,1.343-3,3v22c0,1.657 1.343,3 3,3 0.552,0 1-0.447 1-1 0-0.553-0.448-1-1-1zm16,0h4c0.552,0 1-0.447 1-1 0-0.553-0.448-1-1-1h-4c-0.552,0-1,0.447-1,1 0,0.553 0.448,1 1,1zm-8,4h8c0.552,0 1-0.447 1-1 0-0.553-0.448-1-1-1h-8c-0.552,0-1,0.447-1,1 0,0.553 0.448,1 1,1zm30-24h-32c-1.657,0-3,1.343-3,3v22c0,1.657 1.343,3 3,3h32c1.657,0 3-1.343 3-3v-22c0-1.657-1.343-3-3-3zm1,25c0,0.553-0.448,1-1,1h-32c-0.552,0-1-0.447-1-1v-11h34v11zm0-13h-34v-4h34v4zm0-6h-34v-3c0-0.553 0.448-1 1-1h32c0.552,0 1,0.447 1,1v3zm-31,14h4c0.552,0 1-0.447 1-1 0-0.553-0.448-1-1-1h-4c-0.552,0-1,0.447-1,1 0,0.553 0.448,1 1,1z" fill="#000000" style="fill:#000000;stroke:none" stroke="none"/>
    </g>
  </g>
</svg>