<?xml version="1.0" encoding="iso-8859-1"?>
<!-- Generator: Adobe Illustrator 19.0.0, SVG Export Plug-In . SVG Version: 6.00 Build 0)  -->
<svg version="1.1" id="Capa_1" xmlns="http://www.w3.org/2000/svg" xmlns:xlink="http://www.w3.org/1999/xlink" x="0px" y="0px"
	 viewBox="0 0 490 490" style="enable-background:new 0 0 490 490;" xml:space="preserve">
<g>
	<path d="M490,232.42L382.664,123.597h-66.515V70.461H0v279.154h97.445c-0.404,2.835-0.625,5.728-0.625,8.673
		c0,33.775,27.475,61.25,61.25,61.25s61.25-27.475,61.25-61.25c0-2.945-0.221-5.838-0.625-8.673h113.542
		c-0.404,2.835-0.625,5.728-0.625,8.673c0,33.775,27.475,61.25,61.25,61.25c33.775,0,61.25-27.475,61.25-61.25
		c0-2.945-0.221-5.838-0.625-8.673H490V232.42z M158.07,399.122c-22.52,0-40.833-18.318-40.833-40.833
		c0-22.515,18.313-40.833,40.833-40.833c22.52,0,40.833,18.319,40.833,40.833C198.903,380.804,180.589,399.122,158.07,399.122z
		 M295.732,123.597v205.602h-83.773c-10.371-19.136-30.636-32.16-53.889-32.16s-43.519,13.024-53.889,32.16H20.417V90.878h275.316
		V123.597z M392.862,399.122c-22.521,0-40.834-18.318-40.834-40.833c0-22.515,18.313-40.833,40.834-40.833
		c22.52,0,40.833,18.319,40.833,40.833C433.695,380.804,415.381,399.122,392.862,399.122z M469.583,329.199h-22.832
		c-10.371-19.136-30.636-32.16-53.889-32.16c-23.254,0-43.519,13.024-53.89,32.16h-22.823V144.014h57.98l95.454,96.78V329.199z"/>
	<polygon points="60.172,215.383 87.111,215.383 87.111,205.91 60.172,205.91 60.172,189.226 90.328,189.226 90.413,179.664 
		49.917,179.664 49.917,240.413 60.172,240.413 	"/>
	<path d="M112.663,219.991h13.473l14.512,20.422h13.035l-15.906-22.073c8.748-2.609,13.126-8.922,13.126-18.947
		c0-6.893-2.002-11.907-5.997-15.036c-3.996-3.127-10.637-4.693-19.902-4.693h-22.597v60.749h10.255V219.991z M112.663,188.964
		h13.034c5.502,0,9.329,0.739,11.472,2.217c2.143,1.475,3.218,4.202,3.218,8.169c0,3.968-1.046,6.853-3.133,8.646
		c-2.08,1.796-6.026,2.694-11.818,2.694h-12.773V188.964z"/>
	<polygon points="209.385,230.766 175.926,230.766 175.926,214.513 205.036,214.513 205.036,205.39 175.926,205.39 175.926,189.311 
		208.339,189.311 208.339,179.664 165.671,179.664 165.671,240.413 209.385,240.413 	"/>
	<polygon points="266.226,230.766 232.767,230.766 232.767,214.513 261.877,214.513 261.877,205.39 232.767,205.39 232.767,189.311 
		265.18,189.311 265.18,179.664 222.512,179.664 222.512,240.413 266.226,240.413 	"/>
</g>
<g>
</g>
<g>
</g>
<g>
</g>
<g>
</g>
<g>
</g>
<g>
</g>
<g>
</g>
<g>
</g>
<g>
</g>
<g>
</g>
<g>
</g>
<g>
</g>
<g>
</g>
<g>
</g>
<g>
</g>
</svg>
