<svg xmlns="http://www.w3.org/2000/svg" version="1.1" viewBox="0 0 32 32" preserveAspectRatio="xMidYMid meet" style="width: 200px; height: 200px; transform-origin: 50% 50%; transform: scaleX(1) scaleY(1) rotate(0deg);">
<title>social-facebook</title>
<path d="M25.49 5.333h-18.98c-0.65 0-1.177 0.527-1.177 1.177v18.98c0 0.65 0.527 1.177 1.177 1.177h10.217v-8.262h-2.782v-3.218h2.782v-2.378c0-2.754 1.683-4.254 4.142-4.254 1.178 0 2.19 0.086 2.486 0.126v2.88h-1.707c-1.334 0-1.593 0.641-1.593 1.574v2.054h3.186l-0.414 3.226h-2.773v8.251h5.435c0.651 0 1.178-0.526 1.178-1.177v-18.98c0-0.65-0.526-1.177-1.177-1.177z" fill="#FFFFFF" style="fill:#FFFFFF;stroke:none" stroke="none"/>
</svg>