<?xml version="1.0" encoding="iso-8859-1"?>
<!-- Generator: Adobe Illustrator 19.0.0, SVG Export Plug-In . SVG Version: 6.00 Build 0)  -->
<svg xmlns="http://www.w3.org/2000/svg" xmlns:xlink="http://www.w3.org/1999/xlink" version="1.1" id="Layer_1" x="0px" y="0px" viewBox="0 0 512 512" style="enable-background:new 0 0 512 512;" xml:space="preserve">
<g>
	<g>
		<g>
			<path d="M211.105,176.963c0.109,0,0.219-0.002,0.329-0.006c5.545-0.178,9.896-4.818,9.717-10.364     c-0.037-1.154-0.088-1.966-0.237-2.799c-0.004-0.076-0.007-0.164-0.011-0.263c-0.209-5.544-4.882-9.866-10.417-9.66     c-5.543,0.21-9.868,4.873-9.659,10.417c0.04,1.08,0.094,1.879,0.234,2.683c0.003,0.078,0.006,0.167,0.009,0.269     C201.246,172.676,205.707,176.963,211.105,176.963z"/>
			<path d="M258.542,244.785c-20.251,0-36.726-16.476-36.726-36.726c0-5.547-4.497-10.046-10.046-10.046     c-5.548,0-10.046,4.498-10.046,10.046c0,31.33,25.488,56.818,56.818,56.818c5.548,0,10.046-4.497,10.046-10.046     C268.588,249.283,264.091,244.785,258.542,244.785z"/>
			<path d="M417.21,334.453c-2.142-1.13-52.899-27.432-91.372-7.828c-31.498,16.049-42.941,56.842-46.245,72.42l-11.65,5.936     V304.602c49.091-4.744,87.6-46.229,87.6-96.543c0-3.767-0.372-7.658-1.071-11.575c0.062-45.046,2.642-89.265,7.672-131.442     c0.734-6.157,1.177-9.873-2.925-13.415c-2.494-2.155-5.887-2.947-9.074-2.127c-4.008,1.024-8.017,2.118-12.009,3.26     c1.331-18.908,2.925-32.292,3.607-38.012c0.58-4.868,1.038-8.714-2.971-12.242c-2.492-2.194-5.911-3.016-9.127-2.193     c-31.007,7.919-59.51,19.997-82.828,35.059c-17.1-7.536-35.474-13.851-54.687-18.756c-3.214-0.839-6.642-0.039-9.149,2.145     c-4.057,3.534-3.597,7.387-2.961,12.718c0.589,4.939,1.774,14.876,2.974,28.711c-5.747-1.718-11.551-3.337-17.374-4.826     c-3.192-0.82-6.593-0.023-9.087,2.139c-4.089,3.543-3.666,7.08-2.899,13.499c5.248,43.944,7.909,90.056,7.909,137.058     c0,49.872,37.835,91.068,86.31,96.408v157.7l-15.447-7.871c-3.304-15.578-14.747-56.371-46.245-72.42     c-38.47-19.601-89.229,6.697-91.372,7.828c-3.759,1.982-5.864,6.114-5.258,10.319c0.346,2.397,8.904,58.919,47.375,78.521     c10.385,5.292,21.664,7.238,32.642,7.238c23.602-0.001,45.792-8.996,54.69-13.1l23.616,12.033v17.239     c0,5.547,4.497,10.046,10.046,10.046c5.548,0,10.046-4.498,10.046-10.046v-74.425l19.819-10.098     c8.896,4.105,31.085,13.1,54.691,13.1c10.976,0,22.258-1.947,32.642-7.238c38.471-19.602,47.028-76.124,47.375-78.521     C423.074,340.566,420.969,336.435,417.21,334.453z M164.435,442.213l35.805,18.243c-16.211,5.064-37.951,8.475-54.215,0.187     c-22.269-11.347-31.838-42.127-35.146-56.24c13.373-5.624,43.894-15.968,66.158-4.625c16.352,8.331,25.851,27.135,31.056,42.131     l-34.537-17.597c-4.945-2.521-10.993-0.554-13.511,4.39C157.527,433.645,159.491,439.694,164.435,442.213z M330.308,76.134     c3.539-1.144,7.12-2.246,10.724-3.304c-2.91,26.621-4.874,53.98-5.876,81.796l0.001,0.005     c-14.326-19.495-35.554-38.264-61.808-54.602c9.072-4.818,18.643-9.321,28.608-13.457     C311.023,82.806,320.564,79.293,330.308,76.134z M268.303,45.851c15.574-8.804,33.236-16.286,52.205-22.11     c-0.904,8.58-2.025,20.661-2.93,35.459l0.014,0.006c-6.091,2.086-12.075,4.303-17.911,6.621     c-9.514-7.151-20.015-13.832-31.391-19.976L268.303,45.851z M243.544,55.917c12.558,5.818,24.135,12.262,34.585,19.246h0.002     c-8.759,4.143-17.172,8.564-25.169,13.225c-15.338-8.056-31.856-15.248-49.268-21.446l0.013-0.005     c-0.851-10.983-1.75-20.097-2.491-26.957C216.081,44.44,230.269,49.778,243.544,55.917z M258.542,284.967     c-42.407,0-76.908-34.501-76.908-76.908c0-44.221-2.319-87.689-6.896-129.371c5.477,1.6,10.901,3.303,16.224,5.094     c20.589,6.956,39.919,15.347,57.452,24.941c37.191,20.359,65.146,45.428,78.716,70.593c3.697,6.85,6.196,13.545,7.431,19.904     c0.591,3.032,0.89,6.005,0.89,8.837C335.451,250.467,300.95,284.967,258.542,284.967z M365.973,405.392     c-17.02,8.674-38.856,4.67-54.172-0.208l35.763-18.222c4.943-2.519,6.908-8.568,4.39-13.511     c-2.519-4.943-8.569-6.911-13.511-4.39l-34.564,17.611c5.561-15.721,15.428-34.168,31.084-42.145     c22.305-11.364,52.891-0.963,66.22,4.65C397.327,365.798,386.741,394.81,365.973,405.392z"/>
		</g>
	</g>
</g>
<g>
</g>
<g>
</g>
<g>
</g>
<g>
</g>
<g>
</g>
<g>
</g>
<g>
</g>
<g>
</g>
<g>
</g>
<g>
</g>
<g>
</g>
<g>
</g>
<g>
</g>
<g>
</g>
<g>
</g>
</svg>
