<svg xmlns="http://www.w3.org/2000/svg" xmlns:xlink="http://www.w3.org/1999/xlink" enable-background="new 0 0 32 32" version="1.1" viewBox="0 0 32 32" xml:space="preserve" preserveAspectRatio="xMidYMid meet" style="width: 200px; height: 200px; transform-origin: 50% 50%; transform: scaleX(1) scaleY(1) rotate(0deg);"><g id="style_2_copy_6" style="fill:#228342"><g style="fill:#228342"><g style="fill:#228342"><path d="M16,31.5C7.453,31.5,0.5,24.547,0.5,16S7.453,0.5,16,0.5S31.5,7.453,31.5,16S24.547,31.5,16,31.5z" fill="#FFFFFF"/></g><g style="fill:#228342"><g style="fill:#228342"><path d="M16,1c8.271,0,15,6.729,15,15s-6.729,15-15,15S1,24.271,1,16S7.729,1,16,1 M16,0C7.163,0,0,7.163,0,16      s7.163,16,16,16s16-7.163,16-16S24.837,0,16,0L16,0z" fill="#FFFFFF"/></g></g><g style="fill:#228342"><g style="fill:#228342"><path d="M16,3.007c7.165,0,12.993,5.829,12.993,12.993S23.164,28.993,16,28.993S3.007,23.164,3.007,16      S8.835,3.007,16,3.007" fill="#FFFFFF"/></g></g><g style="fill:#228342"><path d="M16,3.006C8.836,3.006,3.006,8.836,3.006,16c0,3.605,1.478,6.871,3.858,9.227L25.227,6.864     C22.871,4.485,19.605,3.006,16,3.006z" fill="#FFFFFF"/></g></g><g style="fill:#228342"><path d="M23.577,13.421c0,4.101-2.28,7.165-5.641,7.165c-1.129,0-2.19-0.61-2.554-1.303    c0,0-0.607,2.409-0.735,2.874c-0.453,1.643-1.784,3.286-1.887,3.421c-0.072,0.094-0.231,0.064-0.249-0.06    c-0.029-0.209-0.368-2.282,0.032-3.973c0.2-0.849,1.344-5.696,1.344-5.696s-0.333-0.667-0.333-1.654    c0-1.55,0.898-2.706,2.016-2.706c0.951,0,1.41,0.713,1.41,1.569c0,0.956-0.608,2.385-0.923,3.709    c-0.262,1.109,0.556,2.014,1.65,2.014c1.98,0,3.314-2.544,3.314-5.559c0-2.291-1.543-4.006-4.35-4.006    c-3.17,0-5.147,2.365-5.147,5.007c0,0.911,0.269,1.554,0.69,2.05c0.193,0.229,0.22,0.32,0.15,0.583    c-0.051,0.193-0.165,0.655-0.214,0.839c-0.069,0.265-0.284,0.359-0.523,0.262c-1.46-0.596-2.141-2.196-2.141-3.994    c0-2.969,2.505-6.53,7.471-6.53C20.95,7.432,23.577,10.32,23.577,13.421z" fill="#FFFFFF"/></g><g style="fill:#228342"><path d="M23.045,12.889c0,4.101-2.28,7.165-5.641,7.165c-1.129,0-2.19-0.61-2.554-1.303c0,0-0.607,2.409-0.735,2.874    c-0.453,1.643-1.784,3.286-1.887,3.421c-0.072,0.094-0.231,0.064-0.249-0.06c-0.029-0.209-0.368-2.282,0.032-3.973    c0.2-0.849,1.344-5.696,1.344-5.696s-0.333-0.667-0.333-1.654c0-1.55,0.898-2.706,2.016-2.706c0.951,0,1.41,0.713,1.41,1.569    c0,0.956-0.608,2.385-0.923,3.709c-0.262,1.109,0.556,2.014,1.65,2.014c1.98,0,3.314-2.544,3.314-5.559    c0-2.291-1.543-4.006-4.35-4.006c-3.17,0-5.147,2.365-5.147,5.007c0,0.911,0.269,1.554,0.69,2.05    c0.193,0.229,0.22,0.32,0.15,0.583c-0.051,0.193-0.165,0.655-0.214,0.839c-0.069,0.265-0.284,0.359-0.523,0.262    c-1.46-0.596-2.141-2.196-2.141-3.994c0-2.969,2.505-6.53,7.471-6.53C20.418,6.9,23.045,9.788,23.045,12.889z" style="fill:#228342"/></g></g></svg>